PathFileType	4	(X/Y/Z)	/Users/itak/Documents/Research/Walk-IL/dataset/trc/00581_00009.trc
DataRate	CameraRate	NumFrames	NumMarkers	Units	OrigDataRate	OrigDataStartFrame	OrigNumFrames
100.000000	100.000000	4	53	mm	100.000000	459	525
Frame#	Time	RPSI			LPSI			L3			STRN			T10			C7			CLAV			RBAK			LBAK			LSHO			LUPA			LAEL			LAOL			LWTS			LWPS			LFRA			LIFD			LHPS			LHTS			RSHO			RUPA			RAEL			RAOL			RWTS			RWPS			RFRA			RIFD			RHPS			RBHD			RFHD			LBHD			LHIP			RHIP			RASI			LASI			LKNE			LTHI			LANK			LTIP			LTOE			LMT1			LMT5			LHEE			RKNE			RTHI			RANK			RTIP			RTOE			RMT1			RMT5			RHEE			RHTS			LFHD			
		X1	Y1	Z1	X2	Y2	Z2	X3	Y3	Z3	X4	Y4	Z4	X5	Y5	Z5	X6	Y6	Z6	X7	Y7	Z7	X8	Y8	Z8	X9	Y9	Z9	X10	Y10	Z10	X11	Y11	Z11	X12	Y12	Z12	X13	Y13	Z13	X14	Y14	Z14	X15	Y15	Z15	X16	Y16	Z16	X17	Y17	Z17	X18	Y18	Z18	X19	Y19	Z19	X20	Y20	Z20	X21	Y21	Z21	X22	Y22	Z22	X23	Y23	Z23	X24	Y24	Z24	X25	Y25	Z25	X26	Y26	Z26	X27	Y27	Z27	X28	Y28	Z28	X29	Y29	Z29	X30	Y30	Z30	X31	Y31	Z31	X32	Y32	Z32	X33	Y33	Z33	X34	Y34	Z34	X35	Y35	Z35	X36	Y36	Z36	X37	Y37	Z37	X38	Y38	Z38	X39	Y39	Z39	X40	Y40	Z40	X41	Y41	Z41	X42	Y42	Z42	X43	Y43	Z43	X44	Y44	Z44	X45	Y45	Z45	X46	Y46	Z46	X47	Y47	Z47	X48	Y48	Z48	X49	Y49	Z49	X50	Y50	Z50	X51	Y51	Z51	X52	Y52	Z52	X53	Y53	Z53	

460	4.59	748.1156005859375	1017.464904785156	214.3634185791016	626.4510498046875	1024.498657226562	158.7507171630859	688.8360595703125	1108.467041015625	181.2650299072266	781.5779418945312	1301.716674804688	-23.99545860290527	686.9893798828125	1233.75634765625	193.4970397949219	724.162353515625	1508.70703125	169.6211090087891	777.604736328125	1413.097290039062	-1.026528358459473	770.893798828125	1376.152099609375	260.3499145507812	625.3319702148438	1458.615600585938	162.8042907714844	584.1052856445312	1488.691284179688	43.01831817626953	503.089111328125	1362.701049804688	23.59203910827637	482.9230651855469	1145.478393554688	-3.439495086669922	508.7301330566406	1130.582763671875	94.33348846435547	573.3572998046875	926.1861572265625	-112.1172637939453	494.5131530761719	892.0982055664062	-94.30821990966797	488.8300170898438	1064.465454101562	-38.16713333129883	590.8605346679688	757.998779296875	-123.6579132080078	510.95556640625	834.349609375	-107.2529907226562	568.2310180664062	850.1387329101562	-142.1594390869141	886.9009399414062	1464.182861328125	173.6655578613281	941.2003784179688	1396.633911132812	212.9974212646484	988.3235473632812	1107.893920898438	206.3976593017578	943.6898803710938	1085.169555664062	245.5368041992188	1011.653564453125	909.177978515625	39.96526718139648	1053.596557617188	881.2061767578125	105.0335540771484	1000.929809570312	1054.172119140625	193.4709167480469	1019.292419433594	743.1090087890625	12.76622200012207	1064.242797851562	811.6093139648438	78.26747131347656	828.327880859375	1690.110107421875	124.7347030639648	881.1192016601562	1709.068969726562	-4.281023979187012	681.355224609375	1698.53955078125	46.72119140625	556.8961181640625	946.642333984375	-10.02920341491699	907.8858032226562	937.7877197265625	150.1972503662109	888.2395629882812	971.4815673828125	47.84239196777344	635.7786254882812	970.7938232421875	-61.88832473754883	614.530029296875	498.9817199707031	-42.84340667724609	582.5969848632812	667.7080078125	-43.65604782104492	558.97265625	44.16509246826172	115.456657409668	571.1913452148438	266.0274658203125	60.38541030883789	672.2285766601562	68.69868469238281	-63.77732467651367	685.236572265625	57.59214401245117	13.88246440887451	582.6275024414062	49.80112457275391	-2.70582103729248	589.361083984375	46.26119232177734	196.8791046142578	860.265625	497.8834228515625	80.72089385986328	909.0797729492188	785.0703735351562	100.0486907958984	780.1200561523438	42.03020858764648	180.9044799804688	838.8037109375	353.6604309082031	80.82002258300781	819.4292602539062	40.31459426879883	-41.32342147827148	758.7827758789062	43.78382873535156	4.583146095275879	845.5473022460938	40.63825607299805	65.45292663574219	709.1969604492188	38.59399795532227	211.9468688964844	1044.055908203125	823.9244384765625	7.715567111968994	751.0680541992188	1717.651123046875	-65.98116302490234	
461	4.600000000000001	748.9320678710938	1017.4501953125	212.635498046875	627.201904296875	1024.48828125	157.1905670166016	689.5464477539062	1108.28955078125	179.6740264892578	782.0296020507812	1301.593383789062	-25.64262390136719	687.6912841796875	1233.5771484375	191.9151763916016	724.9437866210938	1508.53857421875	168.2263336181641	778.1050415039062	1412.991577148438	-2.604299068450928	771.657470703125	1375.9140625	258.7519226074219	626.0313720703125	1458.46875	161.4361724853516	584.6663208007812	1488.617065429688	41.69363403320312	503.6661376953125	1362.584106445312	22.34899711608887	483.6751708984375	1145.25830078125	-4.54918098449707	509.6111755371094	1130.525756835938	93.22676086425781	573.8651733398438	925.4892578125	-112.6695251464844	494.9790649414062	891.5382080078125	-94.69343566894531	489.5153198242188	1064.120727539062	-39.08094024658203	591.2798461914062	757.240234375	-123.4896011352539	511.46630859375	833.7482299804688	-107.3783111572266	568.6961059570312	849.3038330078125	-142.3332824707031	887.64208984375	1463.898681640625	171.9939422607422	941.8952026367188	1396.2822265625	211.2528228759766	988.6354370117188	1107.451049804688	204.7469024658203	943.9564819335938	1084.901977539062	243.9506072998047	1011.528015136719	908.0802001953125	38.97436141967773	1053.459228515625	880.2869262695312	104.1299514770508	1001.151245117188	1053.68994140625	191.9500885009766	1019.210876464844	741.7637939453125	12.1634578704834	1063.913208007812	810.5407104492188	77.66029357910156	829.0040893554688	1689.8779296875	123.4290771484375	881.6340942382812	1709.033325195312	-5.604634761810303	681.9415893554688	1698.473999023438	45.59751129150391	557.3687133789062	946.4503784179688	-11.34165954589844	908.612060546875	937.7392578125	148.3137969970703	888.8043823242188	971.3300170898438	46.00431060791016	636.187744140625	970.58740234375	-63.39430236816406	615.6231079101562	498.7372131347656	-42.43101501464844	583.109375	667.3089599609375	-43.89638900756836	561.7548217773438	42.5513801574707	110.2347793579102	573.23193359375	264.4659118652344	57.59910583496094	676.8013916015625	67.34170532226562	-68.18363952636719	689.190185546875	56.35231018066406	9.604459762573242	586.6376342773438	48.51869201660156	-7.796213626861572	591.774658203125	43.92624664306641	191.7371826171875	860.4507446289062	497.7000122070312	79.8994140625	909.638671875	784.943359375	98.43750762939453	780.1182250976562	42.05038452148438	180.9009094238281	838.9047241210938	353.5106811523438	80.29155731201172	819.4105224609375	40.32509994506836	-41.27634429931641	758.775634765625	43.74293518066406	4.567283630371094	845.523681640625	40.67100143432617	65.46675872802734	709.2468872070312	38.67609786987305	211.9854583740234	1043.61767578125	822.5768432617188	7.094220161437988	751.4988403320312	1717.76025390625	-67.16233062744141	
462	4.61	749.7031860351562	1017.409423828125	210.9412078857422	627.8920288085938	1024.453002929688	155.6662445068359	690.1903686523438	1108.106201171875	178.1201171875	782.4075927734375	1301.45703125	-27.25956916809082	688.3132934570312	1233.388305664062	190.3715209960938	725.640625	1508.354858398438	166.8511199951172	778.5403442382812	1412.863159179688	-4.157387256622314	772.3220825195312	1375.65185546875	257.1818237304688	626.660888671875	1458.305419921875	160.0896148681641	585.1563720703125	1488.529174804688	40.3845100402832	504.1681823730469	1362.4638671875	21.10784339904785	484.3528747558594	1145.033203125	-5.672285079956055	510.4031677246094	1130.444702148438	92.11162567138672	574.3386840820312	924.8313598632812	-113.2739181518555	495.4317932128906	891.013916015625	-95.16977691650391	490.1348876953125	1063.783325195312	-40.02681350708008	591.6676635742188	756.5244140625	-123.4209060668945	511.9398498535156	833.1697998046875	-107.6066741943359	569.1377563476562	848.5223388671875	-142.5919799804688	888.2969360351562	1463.590576171875	170.3585510253906	942.5006103515625	1395.91064453125	209.5462188720703	988.8527221679688	1106.986694335938	203.1438903808594	944.1072387695312	1084.631225585938	242.4131011962891	1011.327514648438	906.90869140625	38.10856628417969	1053.244384765625	879.3211669921875	103.3613204956055	1001.273559570312	1053.186645507812	190.5041198730469	1019.077026367188	740.3711547851562	11.68447875976562	1063.506469726562	809.4152221679688	77.21634674072266	829.6158447265625	1689.622314453125	122.1585693359375	882.09228515625	1708.972412109375	-6.890508651733398	682.4661254882812	1698.392456054688	44.49924850463867	557.802734375	946.225341796875	-12.6278190612793	909.2763061523438	937.6888427734375	146.4681854248047	889.3201293945312	971.177978515625	44.18696975708008	636.5357055664062	970.351318359375	-64.86952972412109	616.6796264648438	498.4824829101562	-42.07433700561523	583.5702514648438	666.877685546875	-44.11275482177734	564.2490844726562	41.36924362182617	105.5524444580078	575.1395263671875	263.0274963378906	54.95123672485352	681.1458740234375	65.28158569335938	-72.19992065429688	692.8994750976562	54.85090637207031	5.791472434997559	590.3101196289062	47.18608474731445	-12.35327625274658	593.8870239257812	42.15919876098633	187.1559753417969	860.5947265625	497.5133361816406	79.11964416503906	910.17529296875	784.80224609375	96.89582824707031	780.1090087890625	42.06193542480469	180.8995971679688	838.96923828125	353.3580932617188	79.79531860351562	819.3942260742188	40.33803939819336	-41.23981094360352	758.7581176757812	43.69845581054688	4.560555458068848	845.4985961914062	40.70910263061523	65.47811889648438	709.2886352539062	38.73179244995117	212.0156097412109	1043.092407226562	821.133056640625	6.654357433319092	751.87646484375	1717.85400390625	-68.31729888916016	
463	4.62	750.4321899414062	1017.345031738281	209.2831573486328	628.5219116210938	1024.389526367188	154.1780090332031	690.7689208984375	1107.911010742188	176.6011657714844	782.7137451171875	1301.308349609375	-28.84507751464844	688.853271484375	1233.190795898438	188.8604583740234	726.2512817382812	1508.15625	165.4929351806641	778.9108276367188	1412.710205078125	-5.68494176864624	772.8875122070312	1375.369262695312	255.6424102783203	627.21435546875	1458.124389648438	158.7625274658203	585.5748291015625	1488.422607421875	39.09041976928711	504.6021423339844	1362.339111328125	19.87182807922363	484.95263671875	1144.800659179688	-6.810843467712402	511.097900390625	1130.334716796875	90.98291015625	574.77783203125	924.2127075195312	-113.9355163574219	495.8692321777344	890.5238037109375	-95.74166870117188	490.6850280761719	1063.449462890625	-41.00634765625	592.0205688476562	755.8513793945312	-123.4720458984375	512.3466186523438	832.6046142578125	-107.9481964111328	569.5510864257812	847.79248046875	-142.94384765625	888.8662719726562	1463.258544921875	168.7617797851562	943.017822265625	1395.517822265625	207.8800506591797	988.9784545898438	1106.500244140625	201.5900421142578	944.145263671875	1084.354858398438	240.9260864257812	1011.059326171875	905.6719970703125	37.35808944702148	1052.957763671875	878.3134765625	102.720832824707	1001.300598144531	1052.663208007812	189.1306457519531	1018.890869140625	738.935791015625	11.33335971832275	1063.0302734375	808.2398681640625	76.92448425292969	830.1632690429688	1689.343139648438	120.9212875366211	882.4939575195312	1708.889282226562	-8.143865585327148	682.9285278320312	1698.28955078125	43.42455673217773	558.1951293945312	945.9654541015625	-13.88351058959961	909.8773193359375	937.6318359375	144.6643676757812	889.7944946289062	971.0242309570312	42.38985061645508	636.8302612304688	970.0839233398438	-66.31241607666016	617.6876831054688	498.2223815917969	-41.78127288818359	583.9917602539062	666.4227294921875	-44.31683731079102	566.4238891601562	40.64182662963867	101.5242462158203	576.9013671875	261.7295532226562	52.51650619506836	685.0921020507812	62.53189468383789	-75.80023193359375	696.251708984375	53.1195068359375	2.468873500823975	593.5157470703125	45.8666877746582	-16.29077339172363	595.7025756835938	40.95850372314453	183.2565612792969	860.7020263671875	497.3208618164062	78.38088226318359	910.6893310546875	784.64013671875	95.43321228027344	780.0918579101562	42.06761169433594	180.8986511230469	838.9940795898438	353.2050170898438	79.32756042480469	819.3812866210938	40.35205078125	-41.21926498413086	758.728759765625	43.6514892578125	4.565530776977539	845.4730224609375	40.7524299621582	65.48590850830078	709.3033447265625	38.75566101074219	212.0392913818359	1042.499877929688	819.6099243164062	6.370657444000244	752.2058715820312	1717.930419921875	-69.44644927978516	
